<svg id="svg" version="1.1" xmlns="http://www.w3.org/2000/svg" xmlns:xlink="http://www.w3.org/1999/xlink" width="400" height="400" viewBox="0, 0, 400,400"><g id="svgg"><path id="path0" d="M93.143 114.954 C 78.097 117.301,67.998 127.675,67.369 141.429 L 67.238 144.286 74.332 178.571 L 81.426 212.857 81.559 256.364 L 81.692 299.870 82.405 302.468 C 85.255 312.839,92.946 320.191,103.636 322.762 C 105.979 323.326,287.383 323.674,293.164 323.126 C 305.126 321.992,314.400 314.130,317.690 302.331 L 318.304 300.130 318.438 256.623 L 318.572 213.117 325.650 178.807 C 333.329 141.581,333.143 142.711,332.339 138.099 C 330.287 126.333,322.040 118.311,308.861 115.263 L 306.364 114.685 200.909 114.639 C 112.047 114.600,95.091 114.650,93.143 114.954 M158.831 168.321 C 164.611 169.143,169.525 171.287,174.029 174.954 L 176.063 176.609 178.244 175.601 C 192.070 169.213,207.951 169.194,221.651 175.548 L 223.952 176.615 226.067 174.919 C 245.020 159.720,272.771 171.371,275.056 195.488 C 276.068 206.163,270.788 217.240,261.885 223.122 C 260.439 224.077,259.782 224.665,259.860 224.931 C 263.474 237.132,260.696 254.889,253.478 265.725 C 234.888 293.632,174.685 296.386,150.372 270.441 C 140.340 259.735,136.121 241.117,140.121 225.193 C 140.267 224.613,140.094 224.417,138.533 223.391 C 120.213 211.346,120.442 184.322,138.962 172.686 C 144.893 168.960,152.134 167.369,158.831 168.321 M197.477 216.221 C 186.701 219.589,179.993 242.969,186.129 255.772 C 191.518 267.016,206.941 267.795,213.255 257.143 C 222.111 242.203,210.521 212.144,197.477 216.221 M168.045 219.047 C 163.383 220.076,161.241 223.104,161.085 228.883 C 160.973 233.047,161.302 233.766,163.316 233.766 C 165.266 233.766,165.659 232.990,165.771 228.914 C 165.873 225.215,167.138 223.636,170.000 223.636 C 172.947 223.636,174.072 225.228,174.275 229.686 C 174.436 233.224,174.749 233.766,176.629 233.766 C 178.840 233.766,179.719 230.033,178.558 225.577 C 177.330 220.860,172.742 218.010,168.045 219.047 M228.554 218.963 C 223.846 219.760,221.182 223.432,221.174 229.133 C 221.168 233.059,221.524 233.766,223.506 233.766 C 225.413 233.766,225.797 233.066,225.964 229.276 C 226.161 224.817,227.227 223.458,230.351 223.684 C 233.256 223.894,234.103 225.123,234.286 229.395 C 234.440 232.991,234.864 233.766,236.680 233.766 C 239.959 233.766,240.017 225.503,236.765 221.886 C 235.167 220.109,231.455 218.406,229.887 218.732 C 229.806 218.749,229.206 218.853,228.554 218.963 " stroke="none" fill="#544cd8" fill-rule="evenodd"></path><path id="path1" d="M189.091 0.153 C 188.591 0.207,186.370 0.377,184.156 0.532 C 159.546 2.248,133.625 9.424,110.779 20.846 C 34.662 58.900,-9.129 140.624,1.444 224.888 C 15.641 338.031,121.103 416.252,233.849 397.262 C 342.326 378.991,415.646 275.297,397.262 166.151 C 382.237 76.950,308.830 9.296,217.662 0.628 C 213.432 0.226,191.767 -0.134,189.091 0.153 M296.695 76.956 C 307.912 79.768,315.977 88.104,318.049 99.026 C 318.350 100.616,318.442 103.123,318.442 109.834 L 318.442 118.571 319.676 119.270 C 327.129 123.493,332.255 132.118,332.886 141.498 C 333.036 143.718,332.885 144.516,325.870 178.740 L 318.701 213.714 318.701 254.752 C 318.701 281.292,318.606 296.719,318.431 298.420 C 317.092 311.475,307.363 321.375,294.050 323.232 C 289.572 323.857,110.261 323.846,106.053 323.221 C 94.594 321.519,86.008 314.466,82.770 304.096 C 81.601 300.350,81.602 300.399,81.428 256.104 L 81.259 213.377 74.105 178.442 L 66.951 143.506 67.240 140.649 C 68.121 131.922,72.514 124.395,79.292 120.000 L 81.495 118.571 81.608 109.091 C 81.718 99.803,81.734 99.558,82.415 97.032 C 85.317 86.267,94.587 78.062,105.443 76.648 C 109.127 76.168,294.745 76.467,296.695 76.956 M162.465 91.394 C 157.811 93.508,157.801 100.334,162.449 102.499 C 166.606 104.434,171.180 101.546,171.163 96.996 C 171.147 92.505,166.544 89.540,162.465 91.394 M232.268 91.458 C 227.665 93.737,227.707 100.316,232.338 102.499 C 236.461 104.444,241.050 101.539,241.033 96.996 C 241.016 92.448,236.295 89.465,232.268 91.458 M129.870 214.463 C 129.870 215.567,135.110 220.876,138.320 223.022 L 140.406 224.418 139.803 227.858 C 133.502 263.818,157.734 288.047,200.000 288.047 C 231.556 288.047,253.653 274.680,259.484 252.064 C 261.208 245.376,261.546 235.200,260.281 228.052 C 259.990 226.409,259.752 224.890,259.753 224.675 C 259.753 224.461,260.579 223.761,261.588 223.120 C 264.553 221.237,270.113 215.612,270.127 214.481 C 270.129 214.373,238.571 214.286,200.000 214.286 C 161.429 214.286,129.870 214.365,129.870 214.463 M202.635 216.100 C 213.458 219.481,220.200 243.229,213.987 256.090 C 208.780 266.869,193.569 267.854,187.042 257.836 C 177.465 243.137,189.141 211.885,202.635 216.100 M173.172 219.256 C 177.068 220.694,178.961 223.962,178.961 229.251 C 178.961 232.972,178.446 234.026,176.626 234.026 C 174.652 234.026,174.195 233.196,174.027 229.304 C 173.876 225.811,173.593 225.197,171.683 224.221 C 168.281 222.482,165.939 224.625,165.760 229.641 C 165.652 232.692,165.639 232.744,164.883 233.381 C 160.551 237.026,158.949 226.475,163.114 221.731 C 165.518 218.993,169.682 217.968,173.172 219.256 M234.091 219.567 C 237.652 221.309,239.091 224.076,239.091 229.178 L 239.091 232.771 238.362 233.399 C 236.118 235.330,234.464 233.827,234.275 229.685 C 234.108 226.017,233.727 225.121,231.952 224.221 C 228.486 222.464,225.974 224.815,225.974 229.815 C 225.974 233.790,223.963 235.431,221.773 233.242 L 220.989 232.458 221.085 228.891 C 221.212 224.163,222.321 221.856,225.375 219.969 C 227.775 218.486,231.527 218.313,234.091 219.567 " stroke="none" fill="#fafafa" fill-rule="evenodd"></path><path id="path2" d="M103.636 77.026 C 92.215 79.484,83.665 88.513,81.943 99.935 C 81.433 103.317,81.384 118.572,81.883 118.358 C 82.062 118.281,83.156 117.812,84.316 117.314 C 86.882 116.214,89.420 115.490,92.857 114.878 C 96.281 114.268,302.200 114.147,306.317 114.752 C 309.574 115.231,313.299 116.242,315.714 117.303 C 316.857 117.804,317.947 118.282,318.137 118.364 C 318.672 118.595,318.420 100.529,317.855 98.182 C 315.419 88.057,308.335 80.549,298.312 77.471 L 295.974 76.753 200.649 76.708 C 119.836 76.669,105.068 76.718,103.636 77.026 M166.990 91.056 C 171.418 92.371,172.791 98.331,169.394 101.488 C 165.333 105.261,158.841 102.387,158.893 96.839 C 158.931 92.660,162.885 89.837,166.990 91.056 M236.860 91.056 C 242.000 92.583,242.711 99.759,237.983 102.406 C 233.795 104.751,228.773 101.730,228.797 96.880 C 228.817 92.649,232.723 89.828,236.860 91.056 " stroke="none" fill="#d3d3d4" fill-rule="evenodd"></path><path id="path3" d="M148.636 114.481 C 176.886 114.517,223.114 114.517,251.364 114.481 C 279.614 114.444,256.500 114.414,200.000 114.414 C 143.500 114.414,120.386 114.444,148.636 114.481 M332.810 142.857 C 332.810 143.786,332.858 144.166,332.915 143.701 C 332.973 143.237,332.973 142.477,332.915 142.013 C 332.858 141.549,332.810 141.929,332.810 142.857 M67.084 143.117 C 67.084 143.760,67.134 144.023,67.196 143.701 C 67.258 143.380,67.258 142.854,67.196 142.532 C 67.134 142.211,67.084 142.474,67.084 143.117 M153.581 168.244 C 154.408 168.296,155.693 168.295,156.438 168.243 C 157.183 168.191,156.506 168.149,154.935 168.149 C 153.364 168.150,152.754 168.192,153.581 168.244 M243.711 168.244 C 244.537 168.296,245.823 168.295,246.568 168.243 C 247.313 168.191,246.636 168.149,245.065 168.149 C 243.494 168.150,242.884 168.192,243.711 168.244 M198.896 170.840 C 199.503 170.894,200.497 170.894,201.104 170.840 C 201.711 170.785,201.214 170.740,200.000 170.740 C 198.786 170.740,198.289 170.785,198.896 170.840 M133.499 177.078 L 131.818 178.831 133.571 177.150 C 135.200 175.589,135.443 175.325,135.252 175.325 C 135.212 175.325,134.423 176.114,133.499 177.078 M275.136 198.182 C 275.136 198.825,275.186 199.088,275.248 198.766 C 275.310 198.445,275.310 197.919,275.248 197.597 C 275.186 197.276,275.136 197.539,275.136 198.182 M266.096 219.545 L 264.545 221.169 266.169 219.619 C 267.677 218.178,267.911 217.922,267.719 217.922 C 267.679 217.922,266.948 218.653,266.096 219.545 M133.636 219.481 C 134.340 220.195,134.974 220.779,135.045 220.779 C 135.117 220.779,134.600 220.195,133.896 219.481 C 133.193 218.766,132.558 218.182,132.487 218.182 C 132.416 218.182,132.933 218.766,133.636 219.481 M235.584 220.601 C 235.584 220.645,235.964 221.025,236.429 221.445 L 237.273 222.208 236.510 221.364 C 235.799 220.577,235.584 220.400,235.584 220.601 M239.059 229.351 C 239.059 230.994,239.101 231.666,239.153 230.844 C 239.205 230.023,239.205 228.679,239.153 227.857 C 239.101 227.036,239.059 227.708,239.059 229.351 M160.874 229.481 C 160.875 230.909,160.918 231.460,160.971 230.706 C 161.024 229.951,161.023 228.782,160.970 228.108 C 160.916 227.434,160.873 228.052,160.874 229.481 M174.121 229.740 C 174.122 231.169,174.165 231.720,174.218 230.965 C 174.270 230.211,174.270 229.042,174.217 228.368 C 174.163 227.694,174.120 228.312,174.121 229.740 M261.104 235.455 C 261.107 236.026,261.161 236.229,261.223 235.906 C 261.285 235.583,261.282 235.115,261.217 234.867 C 261.152 234.619,261.102 234.883,261.104 235.455 M138.803 238.701 C 138.803 240.630,138.844 241.419,138.894 240.455 C 138.944 239.490,138.944 237.912,138.894 236.948 C 138.844 235.984,138.803 236.773,138.803 238.701 M183.697 241.558 C 183.697 242.058,183.750 242.263,183.815 242.013 C 183.881 241.763,183.881 241.354,183.815 241.104 C 183.750 240.854,183.697 241.058,183.697 241.558 M261.110 241.818 C 261.110 242.461,261.160 242.724,261.222 242.403 C 261.284 242.081,261.284 241.555,261.222 241.234 C 261.160 240.912,261.110 241.175,261.110 241.818 M189.091 260.390 C 189.576 260.890,190.030 261.299,190.102 261.299 C 190.173 261.299,189.835 260.890,189.351 260.390 C 188.866 259.890,188.411 259.481,188.340 259.481 C 188.268 259.481,188.606 259.890,189.091 260.390 M197.987 288.245 C 199.094 288.294,200.906 288.294,202.013 288.245 C 203.120 288.196,202.214 288.156,200.000 288.156 C 197.786 288.156,196.880 288.196,197.987 288.245 M106.818 323.296 C 107.068 323.361,107.477 323.361,107.727 323.296 C 107.977 323.231,107.773 323.177,107.273 323.177 C 106.773 323.177,106.568 323.231,106.818 323.296 M292.273 323.296 C 292.523 323.361,292.932 323.361,293.182 323.296 C 293.432 323.231,293.227 323.177,292.727 323.177 C 292.227 323.177,292.023 323.231,292.273 323.296 " stroke="none" fill="#b3b0eb" fill-rule="evenodd"></path><path id="path4" d="M153.442 76.558 C 179.049 76.595,220.951 76.595,246.558 76.558 C 272.166 76.522,251.214 76.492,200.000 76.492 C 148.786 76.492,127.834 76.522,153.442 76.558 M164.613 90.833 C 164.937 90.895,165.404 90.893,165.652 90.828 C 165.901 90.763,165.636 90.712,165.065 90.715 C 164.494 90.718,164.290 90.771,164.613 90.833 M234.484 90.833 C 234.807 90.895,235.274 90.893,235.523 90.828 C 235.771 90.763,235.506 90.712,234.935 90.715 C 234.364 90.718,234.160 90.771,234.484 90.833 M171.229 96.883 C 171.229 97.383,171.283 97.588,171.348 97.338 C 171.413 97.088,171.413 96.679,171.348 96.429 C 171.283 96.179,171.229 96.383,171.229 96.883 M241.104 97.013 C 241.107 97.584,241.161 97.788,241.223 97.465 C 241.285 97.141,241.282 96.674,241.217 96.426 C 241.152 96.177,241.102 96.442,241.104 97.013 M324.156 122.679 C 324.156 122.723,324.536 123.103,325.000 123.523 L 325.844 124.286 325.081 123.442 C 324.370 122.655,324.156 122.478,324.156 122.679 M149.035 168.826 C 129.358 172.975,119.319 193.827,128.339 211.818 L 129.641 214.416 200.027 214.416 L 270.414 214.416 271.823 211.558 C 282.048 190.829,266.949 167.552,243.815 168.379 C 236.775 168.631,228.411 172.080,224.598 176.304 C 224.135 176.817,224.113 176.813,221.611 175.681 C 207.732 169.401,192.595 169.363,178.686 175.572 L 175.943 176.797 174.660 175.628 C 168.190 169.739,157.794 166.979,149.035 168.826 M81.422 233.636 C 81.422 244.494,81.454 248.897,81.493 243.422 C 81.533 237.947,81.533 229.064,81.493 223.682 C 81.454 218.300,81.422 222.779,81.422 233.636 M318.568 255.584 C 318.568 278.370,318.599 287.692,318.636 276.299 C 318.674 264.906,318.674 246.263,318.636 234.870 C 318.599 223.477,318.568 232.799,318.568 255.584 M261.131 238.571 C 261.130 239.857,261.174 240.416,261.229 239.813 C 261.283 239.210,261.284 238.158,261.230 237.475 C 261.177 236.792,261.132 237.286,261.131 238.571 M151.429 271.558 C 151.913 272.058,152.368 272.468,152.440 272.468 C 152.511 272.468,152.173 272.058,151.688 271.558 C 151.204 271.058,150.749 270.649,150.677 270.649 C 150.606 270.649,150.944 271.058,151.429 271.558 M88.831 314.627 C 88.831 314.671,89.211 315.051,89.675 315.471 L 90.519 316.234 89.757 315.390 C 89.045 314.603,88.831 314.426,88.831 314.627 M153.961 323.571 C 179.282 323.608,220.718 323.608,246.039 323.571 C 271.360 323.535,250.643 323.505,200.000 323.505 C 149.357 323.505,128.640 323.535,153.961 323.571 " stroke="none" fill="#d7d7eb" fill-rule="evenodd"></path></g></svg>