<svg width="200" height="48" fill="none" xmlns="http://www.w3.org/2000/svg"><path d="M31.815 34.543H7.555V6.885h24.26v27.658Zm.05-31.673H7.504c-2.131 0-3.956 1.868-3.956 4.003v27.798c0 2.135 1.825 4.11 3.956 4.11h11.401v6.471l12.92-6.714c2.131 0 3.996-1.732 3.996-3.867V6.873c0-2.135-1.825-4.003-3.956-4.003Z" fill="#2463EB"/><path d="M10.815 11.64c0-.63.222-1.157.664-1.582a2.196 2.196 0 0 1 1.57-.638h14.058c.631 0 1.161.215 1.59.644.429.43.643.956.643 1.576 0 .603-.214 1.127-.643 1.57a2.118 2.118 0 0 1-1.59.668h-4.22V29c0 .785-.27 1.45-.814 1.994a2.7 2.7 0 0 1-1.987.817c-.783 0-1.449-.272-1.997-.817-.548-.544-.822-1.209-.822-1.994V13.878h-4.219c-.602 0-1.125-.22-1.57-.662a2.142 2.142 0 0 1-.663-1.576Zm27.51 17.448V17.877c0-.688.25-1.284.75-1.785.501-.502 1.09-.753 1.768-.753.705 0 1.308.251 1.809.753.5.501.75 1.097.75 1.785v.702h.115a6.722 6.722 0 0 1 .892-1.57c.36-.463.716-.79 1.068-.981a2.573 2.573 0 0 1 1.145-.274c.878 0 1.521.251 1.93.753.41.502.616 1.044.616 1.626 0 .603-.21 1.141-.63 1.614-.42.474-.973.712-1.66.712-.409 0-.823.087-1.243.263-.42.177-.778.443-1.074.796-.525.65-.788 1.567-.788 2.75v4.82c0 .744-.266 1.384-.798 1.92a2.616 2.616 0 0 1-1.92.803c-.743 0-1.383-.268-1.922-.803-.54-.535-.809-1.176-.809-1.92Zm10.543-1.995c0-2.072.781-3.458 2.344-4.157 1.565-.698 3.54-1.047 5.923-1.047.45 0 .784.01 1.004.03l.986.028c0-.668-.048-1.2-.144-1.596a1.577 1.577 0 0 0-.63-.949c-.323-.234-.805-.35-1.445-.35-.895 0-1.563.282-2.003.846-.485.669-1.081 1.003-1.788 1.003a2.223 2.223 0 0 1-1.65-.695 2.32 2.32 0 0 1-.68-1.684c0-.392.085-.76.255-1.104.173-.344.427-.627.761-.847a8.304 8.304 0 0 1 2.418-1.053 10.711 10.711 0 0 1 2.745-.351c2.422 0 4.263.519 5.522 1.556 1.26 1.037 1.89 2.74 1.89 5.11l-.03 4.174c0 .724.01 1.264.03 1.62l.026 1.633c0 .688-.25 1.286-.75 1.792-.501.506-1.1.76-1.796.76-.648 0-1.206-.207-1.673-.619a2.505 2.505 0 0 1-.845-1.545c-.6.84-1.307 1.436-2.122 1.792-.817.353-1.784.53-2.9.53-.992 0-1.902-.191-2.73-.574a4.672 4.672 0 0 1-1.98-1.677c-.492-.736-.738-1.611-.738-2.626Zm5.334-.327c0 .524.182.94.546 1.245.361.306.814.46 1.357.46.963 0 1.712-.324 2.246-.97.534-.643.801-1.457.801-2.443v-.23l-1.73-.026c-2.147 0-3.22.654-3.22 1.964Zm12.675 2.322V17.877c0-.688.25-1.284.751-1.785.501-.502 1.09-.753 1.768-.753.705 0 1.308.251 1.809.753.5.501.75 1.097.75 1.785v.402a5.678 5.678 0 0 1 1.96-2.174c.858-.569 1.921-.854 3.19-.854 1.955 0 3.382.555 4.28 1.664.895 1.11 1.343 2.629 1.343 4.56v7.613c0 .744-.267 1.384-.801 1.92a2.612 2.612 0 0 1-1.916.803c-.746 0-1.388-.268-1.927-.803-.538-.535-.808-1.176-.808-1.92v-6.753c0-1.1-.233-1.865-.7-2.295-.467-.43-1.001-.645-1.603-.645-.723 0-1.345.262-1.866.784-.518.52-.778 1.463-.778 2.83v6.079c0 .744-.267 1.384-.801 1.92a2.616 2.616 0 0 1-1.92.803c-.743 0-1.384-.268-1.922-.803-.54-.535-.809-1.176-.809-1.92Zm17.582-8.43c0-1.683.658-3.018 1.973-4.006 1.316-.99 3.07-1.485 5.264-1.485 1.603 0 3 .255 4.192.766 1.192.513 1.788 1.295 1.788 2.346 0 .706-.212 1.27-.636 1.69-.424.42-.946.631-1.566.631-.705 0-1.31-.325-1.818-.975a1.985 1.985 0 0 0-.728-.645c-.296-.152-.735-.229-1.316-.229-.629 0-1.125.108-1.489.324-.361.214-.542.526-.542.938 0 .335.138.59.414.766.276.178.743.333 1.401.466l2.29.472c1.756.374 3.028.93 3.819 1.67.792.741 1.189 1.771 1.189 3.092 0 1.719-.63 3.083-1.89 4.094-1.26 1.008-3.157 1.511-5.694 1.511-1.765 0-3.257-.256-4.475-.769-1.222-.51-1.832-1.32-1.832-2.43 0-.65.216-1.213.65-1.69.433-.477.988-.716 1.666-.716.391 0 .724.081 1 .243.279.162.552.4.819.715.294.374.587.64.879.797.29.157.759.236 1.407.236 1.507 0 2.26-.468 2.26-1.404a.973.973 0 0 0-.333-.766c-.225-.195-.68-.36-1.368-.496l-1.99-.415c-1.838-.373-3.188-.933-4.047-1.677-.858-.747-1.287-1.765-1.287-3.054Zm16.12 8.457V11.212c0-.747.265-1.386.795-1.917.53-.529 1.176-.793 1.94-.793.743 0 1.377.264 1.902.793.523.531.785 1.17.785 1.917v10.12l4.435-5.22c.411-.506.974-.764 1.69-.773.6 0 1.117.217 1.553.651.433.437.65.955.65 1.556 0 .545-.196 1.046-.586 1.505l-2.492 2.754 3.778 6.105c.258.412.387.862.387 1.35a2.45 2.45 0 0 1-.751 1.805c-.5.497-1.098.746-1.794.746-.47 0-.902-.112-1.297-.337a2.367 2.367 0 0 1-.909-.895l-3.246-5.362-1.418 1.576v2.322a2.6 2.6 0 0 1-.785 1.906c-.525.527-1.169.79-1.933.79a2.611 2.611 0 0 1-1.909-.79 2.582 2.582 0 0 1-.795-1.906Zm16.437-.027V17.877c0-.688.25-1.284.751-1.785.503-.502 1.092-.753 1.768-.753.705 0 1.308.251 1.808.753.503.501.755 1.097.755 1.785v.702h.114a6.717 6.717 0 0 1 .892-1.57c.357-.463.712-.79 1.065-.981a2.57 2.57 0 0 1 1.144-.274c.878 0 1.523.251 1.933.753.409.502.613 1.044.613 1.626 0 .603-.208 1.141-.626 1.614-.42.474-.973.712-1.66.712-.411 0-.826.087-1.246.263a2.79 2.79 0 0 0-1.071.796c-.525.65-.788 1.567-.788 2.75v4.82c0 .744-.267 1.384-.801 1.92-.535.535-1.174.803-1.917.803-.745 0-1.387-.268-1.926-.803-.539-.535-.808-1.176-.808-1.92Zm11.988-18.065c0-.63.225-1.168.674-1.613a2.219 2.219 0 0 1 1.616-.665h1.344c.631 0 1.169.225 1.616.675.449.448.674.982.674 1.603 0 .632-.227 1.172-.681 1.62-.453.45-.99.675-1.609.675h-1.344a2.202 2.202 0 0 1-1.616-.675 2.205 2.205 0 0 1-.674-1.62Zm.229 18.065V18.076c0-.745.27-1.387.808-1.927.539-.54 1.181-.81 1.927-.81.743 0 1.381.27 1.916.81.534.54.801 1.182.801 1.927v11.012c0 .744-.269 1.384-.808 1.92-.539.535-1.175.803-1.909.803-.746 0-1.388-.268-1.927-.803-.538-.535-.808-1.176-.808-1.92Zm8.342 6.55V17.847c0-.687.245-1.276.737-1.769a2.398 2.398 0 0 1 1.765-.739c.707 0 1.303.246 1.788.74.487.492.73 1.081.73 1.767v.173c.649-.878 1.362-1.558 2.139-2.042.777-.484 1.799-.726 3.068-.726 1.403 0 2.588.36 3.556 1.077.967.718 1.692 1.678 2.175 2.882.481 1.204.721 2.556.721 4.056 0 1.76-.312 3.296-.936 4.61-.625 1.314-1.49 2.32-2.597 3.017-1.107.698-2.36 1.046-3.761 1.046-1.509 0-2.821-.501-3.937-1.505v5.204c0 .747-.266 1.387-.798 1.92a2.615 2.615 0 0 1-1.919.803c-.744 0-1.384-.27-1.923-.81-.539-.54-.808-1.177-.808-1.913Zm5.307-12.071c0 1.644.269 2.839.808 3.584.539.747 1.247 1.12 2.125 1.12.857 0 1.566-.393 2.125-1.178.556-.783.835-1.958.835-3.526 0-1.548-.27-2.683-.808-3.405-.539-.72-1.218-1.08-2.038-1.08-.916 0-1.653.37-2.212 1.11-.557.74-.835 1.865-.835 3.375Zm11.944-6.163c0-.506.176-.937.529-1.292.352-.353.772-.53 1.259-.53h1l.115-2.18a2.427 2.427 0 0 1 .774-1.66 2.387 2.387 0 0 1 1.718-.689c.685 0 1.271.247 1.758.74.487.49.73 1.08.73 1.768v2.021h1.731c.485 0 .905.177 1.26.53.352.355.529.776.529 1.262 0 .506-.177.937-.529 1.293-.355.353-.775.53-1.26.53h-1.616v6.536c0 .803.172 1.372.515 1.704.344.336.863.503 1.559.503.447.095.829.324 1.145.689.315.362.472.787.472 1.275 0 .412-.112.78-.337 1.104a1.979 1.979 0 0 1-.865.715c-.782.135-1.707.207-2.775.216-1.879.01-3.209-.454-3.991-1.39-.763-.907-1.145-2.307-1.145-4.202v-.141l.027-7.01h-.815c-.487 0-.907-.176-1.259-.53a1.73 1.73 0 0 1-.529-1.262Zm12.561 6.22c0-1.642.331-3.1.993-4.37a7.27 7.27 0 0 1 2.896-2.997c1.269-.727 2.785-1.09 4.55-1.09 1.755 0 3.267.363 4.536 1.09 1.268.727 2.225 1.726 2.869 2.997.642 1.27.963 2.709.963 4.313 0 1.626-.336 3.08-1.007 4.36a7.327 7.327 0 0 1-2.926 3.01c-1.278.727-2.794 1.09-4.55 1.09-1.764 0-3.271-.363-4.519-1.09a7.115 7.115 0 0 1-2.839-2.997c-.644-1.27-.966-2.71-.966-4.316Zm5.449-.057c0 1.435.248 2.551.744 3.347.496.8 1.236 1.198 2.219 1.198.972 0 1.702-.401 2.189-1.204.485-.803.727-1.907.727-3.311 0-1.406-.242-2.51-.727-3.31-.487-.804-1.227-1.205-2.219-1.205-.972 0-1.704.393-2.196 1.18-.492.79-.737 1.892-.737 3.305Zm13.291 5.52v-11.21c0-.688.25-1.284.751-1.785.501-.502 1.089-.753 1.765-.753.707 0 1.311.251 1.811.753.501.501.751 1.097.751 1.785v.702h.115a6.717 6.717 0 0 1 .892-1.57c.359-.463.715-.79 1.068-.981a2.555 2.555 0 0 1 1.145-.274c.875 0 1.518.251 1.929.753.411.502.616 1.044.616 1.626 0 .603-.21 1.141-.629 1.614-.42.474-.974.712-1.661.712-.41 0-.825.087-1.242.263-.42.177-.778.443-1.074.796-.526.65-.788 1.567-.788 2.75v4.82c0 .744-.268 1.384-.802 1.92a2.605 2.605 0 0 1-1.916.803c-.743 0-1.384-.268-1.923-.803-.539-.535-.808-1.176-.808-1.92Z" fill="#2463EB"/></svg>